<?xml version="1.0" standalone="no"?>
<!DOCTYPE svg PUBLIC "-//W3C//DTD SVG 20010904//EN"
 "http://www.w3.org/TR/2001/REC-SVG-20010904/DTD/svg10.dtd">
<svg version="1.0" xmlns="http://www.w3.org/2000/svg"
 width="260.000000pt" height="260.000000pt" viewBox="0 0 260.000000 260.000000"
 preserveAspectRatio="xMidYMid meet">
<metadata>
Created by potrace 1.11, written by Peter Selinger 2001-2013
</metadata>
<g transform="translate(0.000000,260.000000) scale(0.100000,-0.100000)"
fill="#000000" stroke="none">
<path d="M0 1300 l0 -1300 1300 0 1300 0 0 1300 0 1300 -1300 0 -1300 0 0
-1300z m2590 0 l0 -1290 -1290 0 -1290 0 0 1290 0 1290 1290 0 1290 0 0 -1290z"/>
<path d="M150 1200 l0 -601 83 3 82 3 3 598 2 597 -85 0 -85 0 0 -600z"/>
<path d="M968 1717 c-31 -45 -154 -219 -272 -387 l-216 -305 0 -67 0 -68 258
-2 257 -3 3 -142 3 -143 74 0 74 0 3 143 3 142 83 3 83 3 -3 67 -3 67 -82 3
-83 3 0 384 0 385 -62 -1 -63 0 -57 -82z m32 -432 l0 -255 -180 0 -180 0 22
35 c39 59 332 475 335 475 2 0 3 -115 3 -255z"/>
<path d="M1520 1201 l0 -601 254 0 c370 0 473 25 581 142 96 104 143 231 152
415 16 310 -100 537 -312 615 -56 20 -82 22 -367 26 l-308 4 0 -601z m596 435
c101 -32 178 -128 210 -262 20 -86 15 -302 -10 -379 -39 -127 -122 -212 -226
-234 -28 -6 -132 -11 -230 -11 l-180 0 0 448 c0 247 3 452 8 456 13 15 373 -1
428 -18z"/>
</g>
</svg>
